<?xml version="1.0" encoding="UTF-8" standalone="no"?>
<!-- Created with Inkscape (http://www.inkscape.org/) -->

<svg
   xmlns:dc="http://purl.org/dc/elements/1.1/"
   xmlns:cc="http://creativecommons.org/ns#"
   xmlns:rdf="http://www.w3.org/1999/02/22-rdf-syntax-ns#"
   xmlns:svg="http://www.w3.org/2000/svg"
   xmlns="http://www.w3.org/2000/svg"
   xmlns:sodipodi="http://sodipodi.sourceforge.net/DTD/sodipodi-0.dtd"
   xmlns:inkscape="http://www.inkscape.org/namespaces/inkscape"
   id="svg3004"
   version="1.1"
   inkscape:version="0.48.4 r9939"
   width="232.5"
   height="117.5"
   xml:space="preserve"
   sodipodi:docname="schemeit-project.pdf"><metadata
     id="metadata3010"><rdf:RDF><cc:Work
         rdf:about=""><dc:format>image/svg+xml</dc:format><dc:type
           rdf:resource="http://purl.org/dc/dcmitype/StillImage" /><dc:title></dc:title></cc:Work></rdf:RDF></metadata><defs
     id="defs3008"><clipPath
       clipPathUnits="userSpaceOnUse"
       id="clipPath3018"><path
         d="m 146,76 248,0 0,125 -248,0 0,-125 z"
         id="path3020" /></clipPath><clipPath
       clipPathUnits="userSpaceOnUse"
       id="clipPath3028"><path
         d="m 146,76 248,0 0,125 -248,0 0,-125 z"
         id="path3030" /></clipPath><clipPath
       clipPathUnits="userSpaceOnUse"
       id="clipPath3038"><path
         d="m 146,76 248,0 0,125 -248,0 0,-125 z"
         id="path3040" /></clipPath><clipPath
       clipPathUnits="userSpaceOnUse"
       id="clipPath3048"><path
         d="m 146,76 248,0 0,125 -248,0 0,-125 z"
         id="path3050" /></clipPath><clipPath
       clipPathUnits="userSpaceOnUse"
       id="clipPath3058"><path
         d="m 146,76 248,0 0,125 -248,0 0,-125 z"
         id="path3060" /></clipPath><clipPath
       clipPathUnits="userSpaceOnUse"
       id="clipPath3068"><path
         d="m 146,76 248,0 0,125 -248,0 0,-125 z"
         id="path3070" /></clipPath><clipPath
       clipPathUnits="userSpaceOnUse"
       id="clipPath3078"><path
         d="m 146,76 248,0 0,125 -248,0 0,-125 z"
         id="path3080" /></clipPath><clipPath
       clipPathUnits="userSpaceOnUse"
       id="clipPath3088"><path
         d="m 146,76 248,0 0,125 -248,0 0,-125 z"
         id="path3090" /></clipPath><clipPath
       clipPathUnits="userSpaceOnUse"
       id="clipPath3098"><path
         d="m 584,304 992,0 0,500 -992,0 0,-500 z"
         id="path3100" /></clipPath><clipPath
       clipPathUnits="userSpaceOnUse"
       id="clipPath3108"><path
         d="m 206,164 0,-248 125,0 0,248 -125,0 z"
         id="path3110" /></clipPath><clipPath
       clipPathUnits="userSpaceOnUse"
       id="clipPath3118"><path
         d="m 206,164 0,-248 125,0 0,248 -125,0 z"
         id="path3120" /></clipPath><clipPath
       clipPathUnits="userSpaceOnUse"
       id="clipPath3128"><path
         d="m 206,164 0,-248 125,0 0,248 -125,0 z"
         id="path3130" /></clipPath><clipPath
       clipPathUnits="userSpaceOnUse"
       id="clipPath3138"><path
         d="m 206,164 0,-248 125,0 0,248 -125,0 z"
         id="path3140" /></clipPath><clipPath
       clipPathUnits="userSpaceOnUse"
       id="clipPath3148"><path
         d="m 206,164 0,-248 125,0 0,248 -125,0 z"
         id="path3150" /></clipPath><clipPath
       clipPathUnits="userSpaceOnUse"
       id="clipPath3158"><path
         d="m 206,164 0,-248 125,0 0,248 -125,0 z"
         id="path3160" /></clipPath><clipPath
       clipPathUnits="userSpaceOnUse"
       id="clipPath3168"><path
         d="m 206,164 0,-248 125,0 0,248 -125,0 z"
         id="path3170" /></clipPath><clipPath
       clipPathUnits="userSpaceOnUse"
       id="clipPath3178"><path
         d="m 206,164 0,-248 125,0 0,248 -125,0 z"
         id="path3180" /></clipPath><clipPath
       clipPathUnits="userSpaceOnUse"
       id="clipPath3188"><path
         d="m 206,164 0,-248 125,0 0,248 -125,0 z"
         id="path3190" /></clipPath><clipPath
       clipPathUnits="userSpaceOnUse"
       id="clipPath3198"><path
         d="m 206,164 0,-248 125,0 0,248 -125,0 z"
         id="path3200" /></clipPath><clipPath
       clipPathUnits="userSpaceOnUse"
       id="clipPath3208"><path
         d="m 206,164 0,-248 125,0 0,248 -125,0 z"
         id="path3210" /></clipPath><clipPath
       clipPathUnits="userSpaceOnUse"
       id="clipPath3218"><path
         d="m 206,164 0,-248 125,0 0,248 -125,0 z"
         id="path3220" /></clipPath><clipPath
       clipPathUnits="userSpaceOnUse"
       id="clipPath3228"><path
         d="m 584,304 992,0 0,500 -992,0 0,-500 z"
         id="path3230" /></clipPath><clipPath
       clipPathUnits="userSpaceOnUse"
       id="clipPath3238"><path
         d="m 146,76 248,0 0,125 -248,0 0,-125 z"
         id="path3240" /></clipPath><clipPath
       clipPathUnits="userSpaceOnUse"
       id="clipPath3248"><path
         d="m 146,76 248,0 0,125 -248,0 0,-125 z"
         id="path3250" /></clipPath><clipPath
       clipPathUnits="userSpaceOnUse"
       id="clipPath3258"><path
         d="m 146,76 248,0 0,125 -248,0 0,-125 z"
         id="path3260" /></clipPath><clipPath
       clipPathUnits="userSpaceOnUse"
       id="clipPath3268"><path
         d="m 146,76 248,0 0,125 -248,0 0,-125 z"
         id="path3270" /></clipPath><clipPath
       clipPathUnits="userSpaceOnUse"
       id="clipPath3278"><path
         d="m 146,76 248,0 0,125 -248,0 0,-125 z"
         id="path3280" /></clipPath><clipPath
       clipPathUnits="userSpaceOnUse"
       id="clipPath3288"><path
         d="m 146,76 248,0 0,125 -248,0 0,-125 z"
         id="path3290" /></clipPath><clipPath
       clipPathUnits="userSpaceOnUse"
       id="clipPath3298"><path
         d="m 292,152 496,0 0,250 -496,0 0,-250 z"
         id="path3300" /></clipPath><clipPath
       clipPathUnits="userSpaceOnUse"
       id="clipPath3308"><path
         d="m 146,76 248,0 0,125 -248,0 0,-125 z"
         id="path3310" /></clipPath><clipPath
       clipPathUnits="userSpaceOnUse"
       id="clipPath3318"><path
         d="m 146,76 248,0 0,125 -248,0 0,-125 z"
         id="path3320" /></clipPath><clipPath
       clipPathUnits="userSpaceOnUse"
       id="clipPath3328"><path
         d="m 146,76 248,0 0,125 -248,0 0,-125 z"
         id="path3330" /></clipPath><clipPath
       clipPathUnits="userSpaceOnUse"
       id="clipPath3338"><path
         d="m 146,76 248,0 0,125 -248,0 0,-125 z"
         id="path3340" /></clipPath><clipPath
       clipPathUnits="userSpaceOnUse"
       id="clipPath3348"><path
         d="m 146,76 248,0 0,125 -248,0 0,-125 z"
         id="path3350" /></clipPath><clipPath
       clipPathUnits="userSpaceOnUse"
       id="clipPath3358"><path
         d="m 146,76 248,0 0,125 -248,0 0,-125 z"
         id="path3360" /></clipPath><clipPath
       clipPathUnits="userSpaceOnUse"
       id="clipPath3368"><path
         d="m 146,76 248,0 0,125 -248,0 0,-125 z"
         id="path3370" /></clipPath><clipPath
       clipPathUnits="userSpaceOnUse"
       id="clipPath3378"><path
         d="m 146,76 248,0 0,125 -248,0 0,-125 z"
         id="path3380" /></clipPath><clipPath
       clipPathUnits="userSpaceOnUse"
       id="clipPath3388"><path
         d="m 146,76 248,0 0,125 -248,0 0,-125 z"
         id="path3390" /></clipPath><clipPath
       clipPathUnits="userSpaceOnUse"
       id="clipPath3398"><path
         d="m 292,152 496,0 0,250 -496,0 0,-250 z"
         id="path3400" /></clipPath><clipPath
       clipPathUnits="userSpaceOnUse"
       id="clipPath3408"><path
         d="m 146,76 248,0 0,125 -248,0 0,-125 z"
         id="path3410" /></clipPath><clipPath
       clipPathUnits="userSpaceOnUse"
       id="clipPath3418"><path
         d="m 146,76 248,0 0,125 -248,0 0,-125 z"
         id="path3420" /></clipPath><clipPath
       clipPathUnits="userSpaceOnUse"
       id="clipPath3428"><path
         d="m 146,76 248,0 0,125 -248,0 0,-125 z"
         id="path3430" /></clipPath><clipPath
       clipPathUnits="userSpaceOnUse"
       id="clipPath3438"><path
         d="m 146,76 248,0 0,125 -248,0 0,-125 z"
         id="path3440" /></clipPath><clipPath
       clipPathUnits="userSpaceOnUse"
       id="clipPath3448"><path
         d="m 146,76 248,0 0,125 -248,0 0,-125 z"
         id="path3450" /></clipPath><clipPath
       clipPathUnits="userSpaceOnUse"
       id="clipPath3458"><path
         d="m 146,76 248,0 0,125 -248,0 0,-125 z"
         id="path3460" /></clipPath></defs><sodipodi:namedview
     pagecolor="#ffffff"
     bordercolor="#666666"
     borderopacity="1"
     objecttolerance="10"
     gridtolerance="10"
     guidetolerance="10"
     inkscape:pageopacity="0"
     inkscape:pageshadow="2"
     inkscape:window-width="1920"
     inkscape:window-height="1028"
     id="namedview3006"
     showgrid="true"
     inkscape:snap-grids="true"
     inkscape:zoom="3.6212766"
     inkscape:cx="109.78199"
     inkscape:cy="3.5772025"
     inkscape:window-x="0"
     inkscape:window-y="27"
     inkscape:window-maximized="1"
     inkscape:current-layer="g3012"><inkscape:grid
       type="xygrid"
       id="grid3508"
       empspacing="5"
       visible="true"
       enabled="true"
       snapvisiblegridlinesonly="true" /></sodipodi:namedview><g
     id="g3012"
     inkscape:groupmode="layer"
     inkscape:label="schemeit-project"
     transform="scale(0.225,0.2256)"><g
       id="g3014"
       transform="matrix(4.1666668,0,0,4.1666668,-608.33335,-316.66667)"><g
         id="g3016"
         clip-path="url(#clipPath3018)"><path
           d="m 269,109 2,0 0,2 -2,0 0,-2 z"
           style="fill:#000000;fill-opacity:1;fill-rule:nonzero;stroke:none"
           id="path3022" /></g></g><g
       id="g3024"
       transform="matrix(4.1666668,0,0,4.1666668,-608.33335,-316.66667)"><g
         id="g3026"
         clip-path="url(#clipPath3028)"><path
           d="m 269,159 2,0 0,2 -2,0 0,-2 z"
           style="fill:#000000;fill-opacity:1;fill-rule:nonzero;stroke:none"
           id="path3032" /></g></g><g
       id="g3034"
       transform="matrix(4.1666668,0,0,4.1666668,-608.33335,-316.66667)"><g
         id="g3036"
         clip-path="url(#clipPath3038)"><path
           d="m 259,131 c 22,0 22,0 22,0"
           style="fill:none;stroke:#000000;stroke-opacity:1;stroke-width:2;stroke-linecap:round;stroke-linejoin:miter;stroke-miterlimit:10;stroke-dasharray:none"
           id="path3042" /></g></g><g
       id="g3044"
       transform="matrix(4.1666668,0,0,4.1666668,-608.33335,-316.66667)"><g
         id="g3046"
         clip-path="url(#clipPath3048)"><path
           d="m 259,139 c 22,0 22,0 22,0"
           style="fill:none;stroke:#000000;stroke-opacity:1;stroke-width:2;stroke-linecap:round;stroke-linejoin:miter;stroke-miterlimit:10;stroke-dasharray:none"
           id="path3052" /></g></g><g
       id="g3054"
       transform="matrix(4.1666668,0,0,4.1666668,-608.33335,-316.66667)"><g
         id="g3056"
         clip-path="url(#clipPath3058)"><path
           d="m 270,111 0,19"
           style="fill:#000000;fill-opacity:1;fill-rule:nonzero;stroke:none"
           id="path3062" /></g></g><g
       id="g3064"
       transform="matrix(4.1666668,0,0,4.1666668,-608.33335,-316.66667)"><g
         id="g3066"
         clip-path="url(#clipPath3068)"><path
           d="m 270,111 0,19"
           style="fill:none;stroke:#000000;stroke-opacity:1;stroke-width:2;stroke-linecap:square;stroke-linejoin:miter;stroke-miterlimit:10;stroke-dasharray:none"
           id="path3072" /></g></g><g
       id="g3074"
       transform="matrix(4.1666668,0,0,4.1666668,-608.33335,-316.66667)"><g
         id="g3076"
         clip-path="url(#clipPath3078)"><path
           d="m 270,140 0,19"
           style="fill:#000000;fill-opacity:1;fill-rule:nonzero;stroke:none"
           id="path3082" /></g></g><g
       id="g3084"
       transform="matrix(4.1666668,0,0,4.1666668,-608.33335,-316.66667)"><g
         id="g3086"
         clip-path="url(#clipPath3088)"><path
           d="m 270,140 0,19"
           style="fill:none;stroke:#000000;stroke-opacity:1;stroke-width:2;stroke-linecap:square;stroke-linejoin:miter;stroke-miterlimit:10;stroke-dasharray:none"
           id="path3092" /></g></g><g
       id="g3104"
       transform="matrix(0,4.1666668,-4.1666668,0,683.33335,-858.33335)"><g
         id="g3106"
         clip-path="url(#clipPath3108)"><path
           d="m 219,59 2,0 0,2 -2,0 0,-2 z"
           style="fill:#000000;fill-opacity:1;fill-rule:nonzero;stroke:none"
           id="path3112" /></g></g><g
       id="g3114"
       transform="matrix(0,4.1666668,-4.1666668,0,683.33335,-858.33335)"><g
         id="g3116"
         clip-path="url(#clipPath3118)"><path
           d="m 219,119 2,0 0,2 -2,0 0,-2 z"
           style="fill:#000000;fill-opacity:1;fill-rule:nonzero;stroke:none"
           id="path3122" /></g></g><g
       id="g3124"
       transform="matrix(0,4.1666668,-4.1666668,0,683.33335,-858.33335)"><g
         id="g3126"
         clip-path="url(#clipPath3128)"><path
           d="m 220,72 7,3 -7,3"
           style="fill:none;stroke:#000000;stroke-opacity:1;stroke-width:2;stroke-linecap:round;stroke-linejoin:round;stroke-miterlimit:10;stroke-dasharray:none"
           id="path3132" /></g></g><g
       id="g3134"
       transform="matrix(0,4.1666668,-4.1666668,0,683.33335,-858.33335)"><g
         id="g3136"
         clip-path="url(#clipPath3138)"><path
           d="m 220,78 -7,3 7,3"
           style="fill:none;stroke:#000000;stroke-opacity:1;stroke-width:2;stroke-linecap:round;stroke-linejoin:round;stroke-miterlimit:10;stroke-dasharray:none"
           id="path3142" /></g></g><g
       id="g3144"
       transform="matrix(0,4.1666668,-4.1666668,0,683.33335,-858.33335)"><g
         id="g3146"
         clip-path="url(#clipPath3148)"><path
           d="m 220,84 7,3 -7,3"
           style="fill:none;stroke:#000000;stroke-opacity:1;stroke-width:2;stroke-linecap:round;stroke-linejoin:round;stroke-miterlimit:10;stroke-dasharray:none"
           id="path3152" /></g></g><g
       id="g3154"
       transform="matrix(0,4.1666668,-4.1666668,0,683.33335,-858.33335)"><g
         id="g3156"
         clip-path="url(#clipPath3158)"><path
           d="m 220,90 -7,3 7,3"
           style="fill:none;stroke:#000000;stroke-opacity:1;stroke-width:2;stroke-linecap:round;stroke-linejoin:round;stroke-miterlimit:10;stroke-dasharray:none"
           id="path3162" /></g></g><g
       id="g3164"
       transform="matrix(0,4.1666668,-4.1666668,0,683.33335,-858.33335)"><g
         id="g3166"
         clip-path="url(#clipPath3168)"><path
           d="m 220,96 7,3 -7,3"
           style="fill:none;stroke:#000000;stroke-opacity:1;stroke-width:2;stroke-linecap:round;stroke-linejoin:round;stroke-miterlimit:10;stroke-dasharray:none"
           id="path3172" /></g></g><g
       id="g3174"
       transform="matrix(0,4.1666668,-4.1666668,0,683.33335,-858.33335)"><g
         id="g3176"
         clip-path="url(#clipPath3178)"><path
           d="m 220,102 -7,3 7,3"
           style="fill:none;stroke:#000000;stroke-opacity:1;stroke-width:2;stroke-linecap:round;stroke-linejoin:round;stroke-miterlimit:10;stroke-dasharray:none"
           id="path3182" /></g></g><g
       id="g3184"
       transform="matrix(0,4.1666668,-4.1666668,0,683.33335,-858.33335)"><g
         id="g3186"
         clip-path="url(#clipPath3188)"><path
           d="m 220,61 0,10"
           style="fill:#000000;fill-opacity:1;fill-rule:nonzero;stroke:none"
           id="path3192" /></g></g><g
       id="g3194"
       transform="matrix(0,4.1666668,-4.1666668,0,683.33335,-858.33335)"><g
         id="g3196"
         clip-path="url(#clipPath3198)"><path
           d="m 220,61 0,10"
           style="fill:none;stroke:#000000;stroke-opacity:1;stroke-width:2;stroke-linecap:square;stroke-linejoin:miter;stroke-miterlimit:10;stroke-dasharray:none"
           id="path3202" /></g></g><g
       id="g3204"
       transform="matrix(0,4.1666668,-4.1666668,0,683.33335,-858.33335)"><g
         id="g3206"
         clip-path="url(#clipPath3208)"><path
           d="m 220,109 0,10"
           style="fill:#000000;fill-opacity:1;fill-rule:nonzero;stroke:none"
           id="path3212" /></g></g><g
       id="g3214"
       transform="matrix(0,4.1666668,-4.1666668,0,683.33335,-858.33335)"><g
         id="g3216"
         clip-path="url(#clipPath3218)"><path
           d="m 220,109 0,10"
           style="fill:none;stroke:#000000;stroke-opacity:1;stroke-width:2;stroke-linecap:square;stroke-linejoin:miter;stroke-miterlimit:10;stroke-dasharray:none"
           id="path3222" /></g></g><g
       id="g3234"
       transform="matrix(4.1666668,0,0,4.1666668,-608.33335,-316.66667)"><g
         id="g3236"
         clip-path="url(#clipPath3238)"><path
           d="m 169,109 2,0 0,2 -2,0 0,-2 z"
           style="fill:#000000;fill-opacity:1;fill-rule:nonzero;stroke:none"
           id="path3242" /></g></g><g
       id="g3244"
       transform="matrix(4.1666668,0,0,4.1666668,-608.33335,-316.66667)"><g
         id="g3246"
         clip-path="url(#clipPath3248)"><path
           d="m 169,169 2,0 0,2 -2,0 0,-2 z"
           style="fill:#000000;fill-opacity:1;fill-rule:nonzero;stroke:none"
           id="path3252" /></g></g><g
       id="g3254"
       transform="matrix(4.1666668,0,0,4.1666668,-608.33335,-316.66667)"><g
         id="g3256"
         clip-path="url(#clipPath3258)"><path
           d="m 188.99984,140 c 0,10.49332 -8.50652,18.99984 -18.99984,18.99984 -10.49333,0 -18.99985,-8.50652 -18.99985,-18.99984 0,-10.49333 8.50652,-18.99985 18.99985,-18.99985 10.49332,0 18.99984,8.50652 18.99984,18.99985 z"
           style="fill:#ffffff;fill-opacity:1;fill-rule:nonzero;stroke:none"
           id="path3262" /></g></g><g
       id="g3264"
       transform="matrix(4.1666668,0,0,4.1666668,-608.33335,-316.66667)"><g
         id="g3266"
         clip-path="url(#clipPath3268)"><path
           d="m 188.99984,140 c 0,10.49332 -8.50652,18.99984 -18.99984,18.99984 -10.49333,0 -18.99985,-8.50652 -18.99985,-18.99984 0,-10.49333 8.50652,-18.99985 18.99985,-18.99985 10.49332,0 18.99984,8.50652 18.99984,18.99985 z"
           style="fill:none;stroke:#000000;stroke-opacity:1;stroke-width:2;stroke-linecap:butt;stroke-linejoin:miter;stroke-miterlimit:4;stroke-dasharray:none"
           id="path3272" /></g></g><g
       id="g3274"
       transform="matrix(4.1666668,0,0,4.1666668,-608.33335,-316.66667)"><g
         id="g3276"
         clip-path="url(#clipPath3278)"><path
           d="m 170,111 0,9"
           style="fill:none;stroke:#000000;stroke-opacity:1;stroke-width:2;stroke-linecap:square;stroke-linejoin:miter;stroke-miterlimit:10;stroke-dasharray:none"
           id="path3282" /></g></g><g
       id="g3284"
       transform="matrix(4.1666668,0,0,4.1666668,-608.33335,-316.66667)"><g
         id="g3286"
         clip-path="url(#clipPath3288)"><path
           d="m 170,160 0,9"
           style="fill:none;stroke:#000000;stroke-opacity:1;stroke-width:2;stroke-linecap:square;stroke-linejoin:miter;stroke-miterlimit:10;stroke-dasharray:none"
           id="path3292" /></g></g><g
       id="g3304"
       transform="matrix(4.1666668,0,0,4.1666668,-608.33335,-316.66667)"><g
         id="g3306"
         clip-path="url(#clipPath3308)"><path
           d="m 170,110 0,-20 20,0"
           style="fill:none;stroke:#000000;stroke-opacity:1;stroke-width:2;stroke-linecap:butt;stroke-linejoin:miter;stroke-miterlimit:10;stroke-dasharray:none"
           id="path3312" /></g></g><g
       id="g3314"
       transform="matrix(4.1666668,0,0,4.1666668,-608.33335,-316.66667)"><g
         id="g3316"
         clip-path="url(#clipPath3318)"><path
           d="m 250,90 20,0 0,20"
           style="fill:none;stroke:#000000;stroke-opacity:1;stroke-width:2;stroke-linecap:butt;stroke-linejoin:miter;stroke-miterlimit:10;stroke-dasharray:none"
           id="path3322" /></g></g><g
       id="g3324"
       transform="matrix(4.1666668,0,0,4.1666668,-608.33335,-316.66667)"><g
         id="g3326"
         clip-path="url(#clipPath3328)"><path
           d="m 170,170 0,20 100,0 0,-30"
           style="fill:none;stroke:#000000;stroke-opacity:1;stroke-width:2;stroke-linecap:butt;stroke-linejoin:miter;stroke-miterlimit:10;stroke-dasharray:none"
           id="path3332" /></g></g><g
       id="g3334"
       transform="matrix(4.1666668,0,0,4.1666668,-608.33335,-316.66667)"><g
         id="g3336"
         clip-path="url(#clipPath3338)"><path
           d="m 369,109 2,0 0,2 -2,0 0,-2 z"
           style="fill:#000000;fill-opacity:1;fill-rule:nonzero;stroke:none"
           id="path3342" /></g></g><g
       id="g3344"
       transform="matrix(4.1666668,0,0,4.1666668,-608.33335,-316.66667)"><g
         id="g3346"
         clip-path="url(#clipPath3348)"><path
           d="m 369,169 2,0 0,2 -2,0 0,-2 z"
           style="fill:#000000;fill-opacity:1;fill-rule:nonzero;stroke:none"
           id="path3352" /></g></g><g
       id="g3354"
       transform="matrix(4.1666668,0,0,4.1666668,-608.33335,-316.66667)"><g
         id="g3356"
         clip-path="url(#clipPath3358)"><path
           d="m 388.99984,140 c 0,10.49332 -8.50652,18.99984 -18.99984,18.99984 -10.49333,0 -18.99985,-8.50652 -18.99985,-18.99984 0,-10.49333 8.50652,-18.99985 18.99985,-18.99985 10.49332,0 18.99984,8.50652 18.99984,18.99985 z"
           style="fill:#ffffff;fill-opacity:1;fill-rule:nonzero;stroke:none"
           id="path3362" /></g></g><g
       id="g3364"
       transform="matrix(4.1666668,0,0,4.1666668,-608.33335,-316.66667)"><g
         id="g3366"
         clip-path="url(#clipPath3368)"><path
           d="m 388.99984,140 c 0,10.49332 -8.50652,18.99984 -18.99984,18.99984 -10.49333,0 -18.99985,-8.50652 -18.99985,-18.99984 0,-10.49333 8.50652,-18.99985 18.99985,-18.99985 10.49332,0 18.99984,8.50652 18.99984,18.99985 z"
           style="fill:none;stroke:#000000;stroke-opacity:1;stroke-width:2;stroke-linecap:butt;stroke-linejoin:miter;stroke-miterlimit:4;stroke-dasharray:none"
           id="path3372" /></g></g><g
       id="g3374"
       transform="matrix(4.1666668,0,0,4.1666668,-608.33335,-316.66667)"><g
         id="g3376"
         clip-path="url(#clipPath3378)"><path
           d="m 370,111 0,9"
           style="fill:none;stroke:#000000;stroke-opacity:1;stroke-width:2;stroke-linecap:square;stroke-linejoin:miter;stroke-miterlimit:10;stroke-dasharray:none"
           id="path3382" /></g></g><g
       id="g3384"
       transform="matrix(4.1666668,0,0,4.1666668,-608.33335,-316.66667)"><g
         id="g3386"
         clip-path="url(#clipPath3388)"><path
           d="m 370,160 0,9"
           style="fill:none;stroke:#000000;stroke-opacity:1;stroke-width:2;stroke-linecap:square;stroke-linejoin:miter;stroke-miterlimit:10;stroke-dasharray:none"
           id="path3392" /></g></g><g
       id="g3404"
       transform="matrix(4.1666668,0,0,4.1666668,-608.33335,-316.66667)"><g
         id="g3406"
         clip-path="url(#clipPath3408)"><path
           d="m 370,110 0,-20 -98,0"
           style="fill:none;stroke:#000000;stroke-opacity:1;stroke-width:2;stroke-linecap:butt;stroke-linejoin:miter;stroke-miterlimit:10;stroke-dasharray:none"
           id="path3412" /></g></g><g
       id="g3414"
       transform="matrix(4.1666668,0,0,4.1666668,-608.33335,-316.66667)"><g
         id="g3416"
         clip-path="url(#clipPath3418)"><path
           d="m 272,90 c 0,1.10457 -0.89543,2 -2,2 -1.10457,0 -2,-0.89543 -2,-2 0,-1.10457 0.89543,-2 2,-2 1.10457,0 2,0.89543 2,2 z"
           style="fill:#000000;fill-opacity:1;fill-rule:nonzero;stroke:none"
           id="path3422" /></g></g><g
       id="g3424"
       transform="matrix(4.1666668,0,0,4.1666668,-608.33335,-316.66667)"><g
         id="g3426"
         clip-path="url(#clipPath3428)"><path
           d="m 272,90 c 0,1.10457 -0.89543,2 -2,2 -1.10457,0 -2,-0.89543 -2,-2 0,-1.10457 0.89543,-2 2,-2 1.10457,0 2,0.89543 2,2 z"
           style="fill:none;stroke:#000000;stroke-opacity:1;stroke-width:2;stroke-linecap:butt;stroke-linejoin:miter;stroke-miterlimit:4;stroke-dasharray:none"
           id="path3432" /></g></g><g
       id="g3434"
       transform="matrix(4.1666668,0,0,4.1666668,-608.33335,-316.66667)"><g
         id="g3436"
         clip-path="url(#clipPath3438)"><path
           d="m 370,170 0,20 -98,0"
           style="fill:none;stroke:#000000;stroke-opacity:1;stroke-width:2;stroke-linecap:butt;stroke-linejoin:miter;stroke-miterlimit:10;stroke-dasharray:none"
           id="path3442" /></g></g><g
       id="g3444"
       transform="matrix(4.1666668,0,0,4.1666668,-608.33335,-316.66667)"><g
         id="g3446"
         clip-path="url(#clipPath3448)"><path
           d="m 272,190 c 0,1.10457 -0.89543,2 -2,2 -1.10457,0 -2,-0.89543 -2,-2 0,-1.10457 0.89543,-2 2,-2 1.10457,0 2,0.89543 2,2 z"
           style="fill:#000000;fill-opacity:1;fill-rule:nonzero;stroke:none"
           id="path3452" /></g></g><g
       id="g3454"
       transform="matrix(4.1666668,0,0,4.1666668,-608.33335,-316.66667)"><g
         id="g3456"
         clip-path="url(#clipPath3458)"><path
           d="m 272,190 c 0,1.10457 -0.89543,2 -2,2 -1.10457,0 -2,-0.89543 -2,-2 0,-1.10457 0.89543,-2 2,-2 1.10457,0 2,0.89543 2,2 z"
           style="fill:none;stroke:#000000;stroke-opacity:1;stroke-width:2;stroke-linecap:butt;stroke-linejoin:miter;stroke-miterlimit:4;stroke-dasharray:none"
           id="path3462" /></g></g><path
       style="fill:none;stroke:#000000;stroke-width:1px;stroke-linecap:butt;stroke-linejoin:miter;stroke-opacity:1"
       d="m 10,67.5 7,0 0,-15 10,0 0,15 8,0"
       id="path3510"
       inkscape:connector-curvature="0"
       transform="scale(4.4444444,4.4326241)" /><text
       xml:space="preserve"
       style="font-size:71.01648712px;font-style:normal;font-weight:normal;line-height:125%;letter-spacing:0px;word-spacing:0px;fill:#000000;fill-opacity:1;stroke:none;font-family:Sans"
       x="865.51343"
       y="290.72372"
       id="text3512"
       sodipodi:linespacing="125%"
       transform="scale(1.0013324,0.99866936)"><tspan
         sodipodi:role="line"
         id="tspan3514"
         x="865.51343"
         y="290.72372">Osc</tspan></text>
<text
       xml:space="preserve"
       style="font-size:53.26236343px;font-style:normal;font-weight:normal;line-height:125%;letter-spacing:0px;word-spacing:0px;fill:#000000;fill-opacity:1;stroke:none;font-family:Sans"
       x="532.62366"
       y="210.83018"
       id="text3516"
       sodipodi:linespacing="125%"
       transform="scale(1.0013324,0.99866933)"><tspan
         sodipodi:role="line"
         id="tspan3518"
         x="532.62366"
         y="210.83018">C</tspan></text>
<text
       xml:space="preserve"
       style="font-size:53.26236343px;font-style:normal;font-weight:normal;line-height:125%;letter-spacing:0px;word-spacing:0px;fill:#000000;fill-opacity:1;stroke:none;font-family:Sans"
       x="221.92651"
       y="122.05959"
       id="text3520"
       sodipodi:linespacing="125%"
       transform="scale(1.0013324,0.99866933)"><tspan
         sodipodi:role="line"
         id="tspan3522"
         x="221.92651"
         y="122.05959">R</tspan></text>
</g></svg>